<svg xmlns="http://www.w3.org/2000/svg" width="32" height="32" viewBox="0 0 32 32" fill="none"><path d="M0 0L0 -0.5C-0.28 -0.5 -0.5 -0.28 -0.5 0L0 0ZM26.67 0L27.17 0C27.17 -0.28 26.94 -0.5 26.67 -0.5L26.67 0ZM26.67 24L26.67 24.5C26.94 24.5 27.17 24.28 27.17 24L26.67 24ZM0 24L-0.5 24C-0.5 24.28 -0.28 24.5 0 24.5L0 24ZM0 0L0 0.5L26.67 0.5L26.67 0L26.67 -0.5L0 -0.5L0 0ZM26.67 0L26.17 0L26.17 24L26.67 24L27.17 24L27.17 0L26.67 0ZM26.67 24L26.67 23.5L0 23.5L0 24L0 24.5L26.67 24.5L26.67 24ZM0 24L0.5 24L0.5 0L0 0L-0.5 0L-0.5 24L0 24Z" fill="rgba(182, 71, 255, 1)" fill-rule="nonzero" transform="matrix(1 0 0 1 2.667 5.333)"/><path d="M0 5.33L0.5 5.33L0.5 0L0 0L-0.5 0L-0.5 5.33L0 5.33Z" fill="rgba(182, 71, 255, 1)" fill-rule="nonzero" transform="matrix(1 0 0 1 8 2.667)"/><path d="M0 5.33L0.5 5.33L0.5 0L0 0L-0.5 0L-0.5 5.33L0 5.33Z" fill="rgba(182, 71, 255, 1)" fill-rule="nonzero" transform="matrix(1 0 0 1 24 2.667)"/><path d="M26.67 0L26.67 -0.5L0 -0.5L0 0L0 0.5L26.67 0.5L26.67 0Z" fill="rgba(182, 71, 255, 1)" fill-rule="nonzero" transform="matrix(1 0 0 1 2.667 12)"/></svg>