<svg xmlns="http://www.w3.org/2000/svg" width="32" height="32" viewBox="0 0 32 32" fill="none"><path d="M6.67 3.33L6.17 3.33C6.17 4.9 4.9 6.17 3.33 6.17L3.33 6.67L3.33 7.17C5.45 7.17 7.17 5.45 7.17 3.33L6.67 3.33ZM3.33 6.67L3.33 6.17C1.77 6.17 0.5 4.9 0.5 3.33L0 3.33L-0.5 3.33C-0.5 5.45 1.22 7.17 3.33 7.17L3.33 6.67ZM0 3.33L0.5 3.33C0.5 1.77 1.77 0.5 3.33 0.5L3.33 0L3.33 -0.5C1.22 -0.5 -0.5 1.22 -0.5 3.33L0 3.33ZM3.33 0L3.33 0.5C4.9 0.5 6.17 1.77 6.17 3.33L6.67 3.33L7.17 3.33C7.17 1.22 5.45 -0.5 3.33 -0.5L3.33 0Z" fill="rgba(182, 71, 255, 1)" fill-rule="nonzero" transform="matrix(1 0 0 1 12.667 12.667)"/><path d="M24 7.33L24.37 7.67C24.54 7.48 24.54 7.18 24.37 6.99L24 7.33ZM0 7.33L-0.37 6.99C-0.54 7.18 -0.54 7.48 -0.37 7.67L0 7.33ZM24 7.33C23.63 6.99 23.63 6.99 23.63 6.99C23.63 6.99 23.63 6.99 23.63 6.99C23.63 6.99 23.63 6.99 23.63 6.99C23.63 6.99 23.63 6.99 23.63 7C23.63 7 23.62 7 23.62 7.01C23.6 7.02 23.59 7.04 23.56 7.07C23.51 7.12 23.44 7.2 23.34 7.3C23.15 7.49 22.86 7.78 22.51 8.12C21.79 8.8 20.79 9.7 19.63 10.61C18.46 11.51 17.15 12.41 15.82 13.07C14.49 13.74 13.18 14.17 12 14.17L12 14.67L12 15.17C13.4 15.17 14.87 14.67 16.27 13.97C17.68 13.26 19.05 12.32 20.24 11.39C21.43 10.47 22.46 9.54 23.19 8.84C23.56 8.49 23.85 8.2 24.05 8C24.15 7.9 24.23 7.82 24.28 7.76C24.31 7.73 24.33 7.71 24.34 7.7C24.35 7.69 24.36 7.68 24.36 7.68C24.36 7.68 24.36 7.68 24.36 7.68C24.36 7.68 24.36 7.68 24.36 7.68C24.37 7.67 24.37 7.67 24.37 7.67C24.37 7.67 24.37 7.67 24 7.33ZM12 14.67L12 14.17C10.82 14.17 9.51 13.74 8.18 13.07C6.85 12.41 5.54 11.51 4.37 10.61C3.21 9.7 2.21 8.8 1.49 8.12C1.14 7.78 0.85 7.49 0.66 7.3C0.56 7.2 0.49 7.12 0.44 7.07C0.41 7.04 0.4 7.02 0.38 7.01C0.38 7 0.37 7 0.37 7C0.37 6.99 0.37 6.99 0.37 6.99C0.37 6.99 0.37 6.99 0.37 6.99C0.37 6.99 0.37 6.99 0.37 6.99C0.37 6.99 0.37 6.99 0 7.33C-0.37 7.67 -0.37 7.67 -0.37 7.67C-0.37 7.67 -0.37 7.67 -0.36 7.68C-0.36 7.68 -0.36 7.68 -0.36 7.68C-0.36 7.68 -0.36 7.68 -0.36 7.68C-0.36 7.68 -0.35 7.69 -0.34 7.7C-0.33 7.71 -0.31 7.73 -0.28 7.76C-0.23 7.82 -0.15 7.9 -0.05 8C0.15 8.2 0.44 8.49 0.81 8.84C1.54 9.54 2.57 10.47 3.76 11.39C4.95 12.32 6.32 13.26 7.73 13.97C9.13 14.67 10.6 15.17 12 15.17L12 14.67ZM0 7.33C0.37 7.67 0.37 7.67 0.37 7.67C0.37 7.67 0.37 7.67 0.37 7.67C0.37 7.67 0.37 7.67 0.37 7.67C0.37 7.67 0.37 7.67 0.37 7.67C0.37 7.67 0.38 7.66 0.38 7.66C0.4 7.64 0.41 7.62 0.44 7.6C0.49 7.54 0.56 7.47 0.66 7.37C0.85 7.17 1.14 6.89 1.49 6.55C2.21 5.87 3.21 4.97 4.37 4.06C5.54 3.16 6.85 2.26 8.18 1.59C9.51 0.92 10.82 0.5 12 0.5L12 0L12 -0.5C10.6 -0.5 9.13 -0.01 7.73 0.7C6.32 1.41 4.95 2.34 3.76 3.27C2.57 4.2 1.54 5.13 0.81 5.83C0.44 6.17 0.15 6.46 -0.05 6.67C-0.15 6.77 -0.23 6.85 -0.28 6.91C-0.31 6.93 -0.33 6.95 -0.34 6.97C-0.35 6.98 -0.36 6.98 -0.36 6.99C-0.36 6.99 -0.36 6.99 -0.36 6.99C-0.36 6.99 -0.36 6.99 -0.36 6.99C-0.37 6.99 -0.37 6.99 -0.37 6.99C-0.37 6.99 -0.37 6.99 0 7.33ZM12 0L12 0.5C13.18 0.5 14.49 0.92 15.82 1.59C17.15 2.26 18.46 3.16 19.63 4.06C20.79 4.97 21.79 5.87 22.51 6.55C22.86 6.89 23.15 7.17 23.34 7.37C23.44 7.47 23.51 7.54 23.56 7.6C23.59 7.62 23.6 7.64 23.62 7.66C23.62 7.66 23.63 7.67 23.63 7.67C23.63 7.67 23.63 7.67 23.63 7.67C23.63 7.67 23.63 7.67 23.63 7.67C23.63 7.67 23.63 7.67 23.63 7.67C23.63 7.67 23.63 7.67 24 7.33C24.37 6.99 24.37 6.99 24.37 6.99C24.37 6.99 24.37 6.99 24.36 6.99C24.36 6.99 24.36 6.99 24.36 6.99C24.36 6.99 24.36 6.99 24.36 6.99C24.36 6.98 24.35 6.98 24.34 6.97C24.33 6.95 24.31 6.93 24.28 6.91C24.23 6.85 24.15 6.77 24.05 6.67C23.85 6.46 23.56 6.17 23.19 5.83C22.46 5.13 21.43 4.2 20.24 3.27C19.05 2.34 17.68 1.41 16.27 0.7C14.87 -0.01 13.4 -0.5 12 -0.5L12 0Z" fill="rgba(182, 71, 255, 1)" fill-rule="nonzero" transform="matrix(1 0 0 1 4 8.667)"/></svg>