<svg xmlns="http://www.w3.org/2000/svg" width="132" height="42" viewBox="0 0 132 42" fill="none"><defs><clipPath id="clip-0"><path d="M11.81 27.32C13.98 29.51 17.51 29.51 19.69 27.32L11.81 19.38C9.64 21.57 9.64 25.13 11.81 27.32ZM21.95 27.32C24.13 29.51 27.66 29.51 29.83 27.32C32 25.13 32 21.57 29.83 19.38L21.95 27.32ZM6.69 9L10.59 9C13.34 6.62 16.91 5.17 20.82 5.17C26.7 5.17 31.81 8.43 34.51 13.25L36.9 13.25L36.9 14.59L35.17 14.59C36.03 16.55 36.51 18.71 36.51 21C36.51 29.74 29.49 36.83 20.82 36.83C12.16 36.83 5.13 29.74 5.13 21C5.13 20.3 5.17 19.61 5.27 18.93L8.51 18.93L8.51 16.67L5.73 16.67C6.4 14.28 7.61 12.12 9.23 10.33L6.69 10.33L6.69 9L6.69 9ZM3.74 9L1.44 9L1.44 10.33L2.89 10.33C1.75 12.27 0.91 14.4 0.44 16.67L3.48 16.67L3.48 18.93L0.1 18.93C0.03 19.61 0 20.3 0 21C0 32.6 9.32 42 20.82 42C27.5 42 33.44 38.83 37.25 33.9L40.04 33.9L40.04 31.98L38.57 31.98C40.52 28.78 41.64 25.02 41.64 21C41.64 18.76 41.29 16.61 40.65 14.59L43.84 14.59L43.84 13.25L40.18 13.25C37.12 5.49 29.61 0 20.82 0C13.74 0 7.5 3.56 3.74 9Z" transform="matrix(1 0 0 1 0 -0.002)"/></clipPath><clipPath id="clip-1"><path d="M0.01 0.08L0.01 11.73L1.7 11.73L1.7 12.62L0.01 12.62C-0.05 17.65 4.39 17.56 8.07 17.45C8.67 17.43 9.25 17.42 9.78 17.42L9.75 13.81L4.23 13.81C3.61 13.81 3.25 13.21 3.32 12.62L6.34 12.62L6.34 11.73L3.32 11.73L3.32 0.08L0 0.08L0.01 0.08ZM28.31 3.18L32.48 3.18C32.96 3.18 33.36 3.61 33.36 4.13C33.52 8.71 33.38 8.58 30.95 8.44C30.26 8.4 29.39 8.37 28.3 8.43L28.3 3.18L28.31 3.18ZM27.88 0.07C26.66 0.11 25.59 0.15 24.99 0.08L24.99 0.95L33.02 0.95L33.02 1.83L24.99 1.83L24.99 8.97L26.25 8.97L26.25 10.49L24.99 10.49L24.99 17.42L28.31 17.42L28.31 12.18L31.36 12.2L32.95 17.42L36.68 17.42L34.29 10.39C37.14 9 37.38 4.27 35.78 1.83L36.68 1.83L36.68 0.95L34.94 0.95C34.22 0.19 32.26 0.02 30.22 0.02C29.43 0.02 28.63 0.04 27.89 0.07M16.94 3.71C18.15 3.63 19.69 3.55 19.62 4.67L19.62 12.85C19.62 13.37 19.23 13.8 18.75 13.8L15.72 13.8C14.73 13.81 14.82 12.51 14.84 11.81L16.19 11.81L16.19 10.92L14.84 10.92L14.84 4.66C14.84 4.14 15.24 3.71 15.72 3.71C15.82 3.73 15.95 3.75 16.11 3.75C16.34 3.75 16.63 3.72 16.94 3.71M15.72 0.08C12.28 0.02 11.11 3.97 11.52 6.98L13.59 6.98L13.59 8.5L11.52 8.5C11.25 14.73 11.61 18.07 18.75 17.42C24.63 17.49 22.62 8.29 22.95 4.67C22.88 0.95 20.1 0 17.19 0C16.7 0 16.2 0.03 15.72 0.08ZM69.22 0.05C68.16 0.08 67.12 0.12 66.16 0.08L66.16 0.66L70.22 0.66L70.22 2.18L66.16 2.18L66.16 6.34L69.49 6.34L69.49 3.17L73.66 3.17C75.01 3.15 74.42 5.57 74.54 6.34L77.06 6.34L77.06 7.03L74.54 7.03C74.62 7.66 74.43 8.44 73.67 8.43L69.49 8.43L69.49 7.03L66.16 7.03L66.16 17.42L70.56 17.42L70.56 15.4L69.48 15.4L69.48 12.18L72.53 12.2L74.12 17.42L77.85 17.42L75.46 10.39C76.69 9.75 77.57 8.5 77.8 7.03L79.72 7.03L79.72 6.34L77.85 6.34C78.41 0.75 75.09 0 71.31 0C70.62 0 69.92 0.02 69.22 0.05M56.78 0.08C53.63 0.02 52.15 3.43 52.55 6.35L55.9 6.35C55.64 3.5 56.5 3.61 58.08 3.72C58.58 3.75 59.15 3.79 59.78 3.72C60.99 3.71 60.6 5.6 60.66 6.35L59.7 6.35L59.7 7.04L60.66 7.04L60.66 8.66L55.9 8.66L55.9 7.04L52.55 7.04L52.55 12.42L50.87 12.42L50.87 13.3L52.55 13.3L52.55 17.42L55.9 17.42L55.9 13.3L54.22 13.3L54.22 12.42L60.66 12.42L60.66 17.42L64 17.42L64 7.04L64.33 7.04L64.33 6.35L64 6.35C64.4 1.59 62.09 0.01 58.33 0.01C57.83 0.01 57.31 0.03 56.77 0.09M42.96 0.09C38.48 0.16 38.62 5.31 38.78 8.67L38.06 8.67L38.06 10.69L38.78 10.69L38.78 11.48L36.39 11.48L36.39 12.61L38.78 12.61C38.68 17.06 42.49 17.78 45.93 17.43C51.04 17.43 50.16 10.8 50.16 7.31L44.44 7.35L44.44 10.44L46.83 10.47C46.67 11.26 47.38 13.89 45.93 13.81C45.67 13.76 45.23 13.79 44.75 13.83C43.47 13.9 41.85 13.98 42.08 12.61L40.73 12.61L40.73 11.48L42.08 11.48L42.08 4.65C42.08 4.1 42.47 3.67 42.95 3.67L45.93 3.67C47.03 3.65 46.83 5.16 46.83 5.9L50.16 5.87C50.52 1.44 47.93 0.01 44.46 0.01C43.98 0.01 43.47 0.03 42.96 0.09Z" transform="matrix(1 0 0 1 52.281 7.016)"/></clipPath></defs><g clip-path="url(#clip-0)"><path d="M43.83 0L0 0L0 42L43.83 42L43.83 0Z" fill="rgba(153, 0, 255, 1)" fill-rule="nonzero" transform="matrix(1 0 0 1 0 -0.002)"/></g><g clip-path="url(#clip-1)"><path d="M79.76 0L0 0L0 27.96L79.76 27.96L79.76 0Z" fill="rgba(255, 255, 255, 1)" fill-rule="nonzero" transform="matrix(1 0 0 1 52.234 7.016)"/></g><path d="M1.13 5.08L0 5.08L0 0L2.27 0C2.57 0 2.83 0.03 3.07 0.11C3.31 0.19 3.51 0.3 3.67 0.43C3.84 0.57 3.97 0.75 4.05 0.95C4.14 1.15 4.19 1.37 4.19 1.62C4.19 1.79 4.16 1.94 4.12 2.09C4.08 2.24 4.01 2.37 3.93 2.5C3.85 2.63 3.75 2.74 3.62 2.83C3.5 2.92 3.36 3 3.21 3.06L4.35 5.07L3.06 5.07L2.06 3.22L1.13 3.22L1.13 5.07L1.13 5.08ZM1.13 2.42L2.13 2.42C2.41 2.42 2.64 2.35 2.79 2.22C2.95 2.09 3.03 1.9 3.03 1.65C3.03 1.53 3.01 1.42 2.97 1.32C2.93 1.22 2.86 1.14 2.78 1.07C2.7 1 2.61 0.95 2.5 0.92C2.38 0.88 2.25 0.86 2.12 0.86L1.13 0.86L1.13 2.43L1.13 2.42Z" fill="rgba(255, 255, 255, 1)" fill-rule="nonzero" transform="matrix(1 0 0 1 52.188 30.76)"/><path d="M3.58 5.08L0 5.08L0 0L3.58 0L3.58 0.91L1.13 0.91L1.13 2.1L3.44 2.1L3.44 2.94L1.13 2.94L1.13 4.18L3.58 4.18L3.58 5.09L3.58 5.08Z" fill="rgba(255, 255, 255, 1)" fill-rule="nonzero" transform="matrix(1 0 0 1 59.438 30.76)"/><path d="M3.45 3.87L1.55 3.87L1.14 5.08L0 5.08L1.88 0L3.21 0L5.09 5.08L3.86 5.08L3.46 3.87L3.45 3.87ZM1.79 3.04L3.21 3.04L2.54 1.05L2.47 1.05L1.79 3.04L1.79 3.04Z" fill="rgba(255, 255, 255, 1)" fill-rule="nonzero" transform="matrix(1 0 0 1 65.359 30.76)"/><path d="M2.13 0.01C2.54 0.01 2.89 0.06 3.21 0.17C3.52 0.28 3.79 0.45 4 0.66C4.22 0.88 4.38 1.14 4.5 1.45C4.61 1.76 4.67 2.12 4.67 2.51C4.67 2.91 4.61 3.29 4.5 3.61C4.39 3.93 4.23 4.2 4.01 4.42C3.79 4.64 3.52 4.8 3.21 4.92C2.89 5.03 2.54 5.09 2.13 5.09L0 5.09L0 0L2.13 0L2.13 0.01ZM1.14 4.18L1.95 4.18C2.46 4.18 2.84 4.04 3.11 3.76C3.38 3.48 3.51 3.07 3.51 2.53C3.51 2.27 3.48 2.05 3.4 1.84C3.33 1.64 3.23 1.47 3.09 1.33C2.96 1.19 2.79 1.09 2.6 1.02C2.41 0.95 2.19 0.91 1.95 0.91L1.13 0.91L1.13 4.18L1.14 4.18Z" fill="rgba(255, 255, 255, 1)" fill-rule="nonzero" transform="matrix(1 0 0 1 72.898 30.748)"/><path d="M1.89 5.08L1.89 3.21L0 0L1.22 0L2.41 2.13L2.48 2.13L3.67 0L4.9 0L3.02 3.21L3.02 5.08L1.89 5.08Z" fill="rgba(255, 255, 255, 1)" fill-rule="nonzero" transform="matrix(1 0 0 1 79.016 30.76)"/><path d="M1.62 5.09L1.62 0.91L0 0.91L0 0L4.38 0L4.38 0.91L2.75 0.91L2.75 5.09L1.62 5.09Z" fill="rgba(255, 255, 255, 1)" fill-rule="nonzero" transform="matrix(1 0 0 1 89.578 30.754)"/><path d="M2.6 0C3 0 3.36 0.06 3.68 0.19C4 0.31 4.27 0.49 4.5 0.72C4.72 0.95 4.89 1.23 5.01 1.56C5.13 1.89 5.2 2.26 5.2 2.67C5.2 3.09 5.14 3.46 5.02 3.79C4.9 4.12 4.73 4.4 4.5 4.63C4.28 4.86 4 5.03 3.69 5.16C3.36 5.28 3 5.35 2.6 5.35C2.21 5.35 1.84 5.28 1.52 5.16C1.2 5.04 0.93 4.86 0.7 4.63C0.48 4.4 0.3 4.12 0.18 3.79C0.06 3.46 0 3.09 0 2.67C0 2.26 0.06 1.89 0.18 1.56C0.3 1.23 0.48 0.95 0.71 0.72C0.93 0.49 1.21 0.31 1.53 0.19C1.85 0.06 2.21 0 2.6 0L2.6 0ZM2.6 0.93C2.38 0.93 2.18 0.97 2 1.06C1.82 1.14 1.67 1.25 1.55 1.4C1.42 1.55 1.32 1.73 1.25 1.95C1.18 2.16 1.15 2.41 1.15 2.67C1.15 2.93 1.18 3.17 1.25 3.39C1.32 3.6 1.42 3.78 1.54 3.93C1.67 4.08 1.82 4.2 2 4.28C2.17 4.36 2.37 4.4 2.6 4.4C2.82 4.4 3.02 4.36 3.2 4.28C3.38 4.2 3.52 4.08 3.65 3.93C3.78 3.78 3.88 3.6 3.94 3.39C4.01 3.17 4.04 2.93 4.04 2.67C4.04 2.4 4.01 2.16 3.94 1.95C3.87 1.73 3.77 1.55 3.65 1.4C3.52 1.25 3.38 1.14 3.2 1.06C3.02 0.97 2.82 0.93 2.6 0.93Z" fill="rgba(255, 255, 255, 1)" fill-rule="nonzero" transform="matrix(1 0 0 1 96.266 30.633)"/><path d="M2.25 0C2.53 0 2.78 0.04 3.01 0.13C3.24 0.21 3.44 0.33 3.61 0.48C3.77 0.63 3.9 0.82 3.99 1.04C4.08 1.26 4.13 1.5 4.13 1.76C4.13 2.02 4.08 2.26 3.99 2.47C3.9 2.69 3.77 2.87 3.59 3.02C3.42 3.17 3.22 3.29 2.98 3.38C2.75 3.46 2.49 3.5 2.2 3.5L1.13 3.5L1.13 5.08L0 5.08L0 0L2.25 0ZM1.13 2.64L1.95 2.64C2.28 2.64 2.53 2.56 2.71 2.41C2.89 2.26 2.98 2.05 2.98 1.76C2.98 1.47 2.89 1.25 2.71 1.1C2.54 0.95 2.28 0.87 1.95 0.87L1.13 0.87L1.13 2.64L1.13 2.64Z" fill="rgba(255, 255, 255, 1)" fill-rule="nonzero" transform="matrix(1 0 0 1 107.578 30.76)"/><path d="M3.54 5.08L0 5.08L0 0L1.13 0L1.13 4.16L3.54 4.16L3.54 5.09L3.54 5.08Z" fill="rgba(255, 255, 255, 1)" fill-rule="nonzero" transform="matrix(1 0 0 1 114.281 30.76)"/><path d="M3.44 3.87L1.55 3.87L1.13 5.08L0 5.08L1.88 0L3.21 0L5.09 5.08L3.86 5.08L3.46 3.87L3.44 3.87ZM1.79 3.04L3.2 3.04L2.53 1.05L2.46 1.05L1.78 3.04L1.79 3.04Z" fill="rgba(255, 255, 255, 1)" fill-rule="nonzero" transform="matrix(1 0 0 1 119.234 30.76)"/><path d="M1.89 5.08L1.89 3.21L0 0L1.22 0L2.41 2.13L2.48 2.13L3.67 0L4.9 0L3.02 3.21L3.02 5.08L1.89 5.08Z" fill="rgba(255, 255, 255, 1)" fill-rule="nonzero" transform="matrix(1 0 0 1 125.625 30.76)"/></svg>