<svg xmlns="http://www.w3.org/2000/svg" width="40" height="40" viewBox="0 0 40 40" fill="none"><path d="M0 1.72C0 0.77 0.77 0 1.72 0L6.31 0C6.84 0 7.26 0.43 7.26 0.96L7.26 12.04C7.26 12.57 6.84 13 6.31 13L1.72 13C0.77 13 0 12.23 0 11.28L0 1.72ZM1.91 1.91L1.91 11.09L5.35 11.09L5.35 1.91L1.91 1.91Z" fill="rgba(182, 71, 255, 1)" fill-rule="nonzero" transform="matrix(1 0 0 1 8 18.939)"/><path d="M4.97 1.91C4.86 1.91 4.78 2 4.78 2.1L4.78 5.54C4.78 5.69 4.74 5.84 4.68 5.97L1.81 11.7C1.57 12.18 1 12.37 0.53 12.13C0.06 11.9 -0.13 11.32 0.1 10.85L2.87 5.32L2.87 2.1C2.87 0.94 3.81 0 4.97 0L5.73 0C7.74 0 9.37 1.63 9.37 3.63L9.37 7.84L13.82 7.84C16.52 7.84 18.46 10.45 17.66 13.04L15.95 18.57C15.18 21.05 12.89 22.75 10.29 22.75L0.96 22.75C0.43 22.75 0 22.32 0 21.79C0 21.26 0.43 20.83 0.96 20.83L10.29 20.83C12.05 20.83 13.6 19.69 14.12 18.01L15.83 12.47C16.25 11.12 15.24 9.75 13.82 9.75L8.41 9.75C7.88 9.75 7.45 9.32 7.45 8.79L7.45 3.63C7.45 2.68 6.68 1.91 5.73 1.91L4.97 1.91Z" fill="rgba(182, 71, 255, 1)" fill-rule="nonzero" transform="matrix(1 0 0 1 13.161 9)"/></svg>