<svg xmlns="http://www.w3.org/2000/svg" width="40" height="40" viewBox="0 0 40 40" fill="none"><rect width="40" height="40" rx="20" ry="20" fill="rgba(182, 71, 255, 1)" transform="matrix(1 0 0 1 0 0)"/><path d="M10.08 11.25L10.65 7.63L7.15 7.63L7.15 5.28C7.15 4.29 7.64 3.32 9.2 3.32L10.82 3.32L10.82 0.24C9.88 0.09 8.93 0.01 7.97 0C5.08 0 3.2 1.74 3.2 4.87L3.2 7.63L0 7.63L0 11.25L3.2 11.25L3.2 20L7.15 20L7.15 11.25L10.08 11.25Z" fill="rgba(255, 255, 255, 1)" fill-rule="nonzero" transform="matrix(1 0 0 1 14.59 10)"/></svg>