<svg xmlns="http://www.w3.org/2000/svg" width="40" height="40" viewBox="0 0 40 40" fill="none"><rect width="40" height="40" rx="20" ry="20" fill="rgba(182, 71, 255, 1)" transform="matrix(1 0 0 1 0 0)"/><path d="M4.45 18.75L4.45 6.1L0.25 6.1L0.25 18.75L4.45 18.75L4.45 18.75ZM2.35 4.37C3.81 4.37 4.73 3.4 4.73 2.19C4.7 0.94 3.81 0 2.38 0C0.94 0 0 0.94 0 2.19C0 3.4 0.91 4.37 2.32 4.37L2.35 4.37L2.35 4.37ZM6.77 18.75L10.98 18.75L10.98 11.69C10.98 11.31 11 10.93 11.11 10.66C11.42 9.9 12.11 9.12 13.27 9.12C14.79 9.12 15.4 10.28 15.4 11.98L15.4 18.75L19.6 18.75L19.6 11.5C19.6 7.61 17.53 5.8 14.76 5.8C12.5 5.8 11.5 7.07 10.95 7.93L10.98 7.93L10.98 6.1L6.77 6.1C6.83 7.29 6.77 18.75 6.77 18.75L6.77 18.75Z" fill="rgba(255, 255, 255, 1)" fill-rule="nonzero" transform="matrix(1 0 0 1 10.2 10.625)"/></svg>