<svg xmlns="http://www.w3.org/2000/svg" width="40" height="40" viewBox="0 0 40 40" fill="none"><rect width="40" height="40" rx="20" ry="20" fill="rgba(182, 71, 255, 1)" transform="matrix(1 0 0 1 0 0)"/><path d="M1.37 7C6.74 4.7 10.32 3.19 12.11 2.46C17.23 0.37 18.29 0.01 18.98 0C19.14 0 19.48 0.03 19.7 0.21C19.88 0.36 19.94 0.56 19.96 0.7C19.98 0.84 20.02 1.16 19.99 1.41C19.71 4.26 18.51 11.19 17.9 14.39C17.65 15.74 17.14 16.2 16.65 16.24C15.58 16.34 14.76 15.55 13.73 14.88C12.11 13.84 11.19 13.19 9.62 12.18C7.8 11 8.98 10.36 10.02 9.3C10.29 9.02 15 4.82 15.09 4.44C15.1 4.39 15.11 4.22 15 4.12C14.9 4.03 14.74 4.06 14.62 4.09C14.46 4.12 11.87 5.8 6.85 9.12C6.12 9.61 5.45 9.86 4.86 9.84C4.2 9.83 2.94 9.48 1.99 9.18C0.84 8.81 -0.07 8.62 0 7.99C0.05 7.67 0.5 7.34 1.37 7Z" fill="rgba(255, 255, 255, 1)" fill-rule="evenodd" transform="matrix(1 0 0 1 8.025 13.83)"/></svg>