<svg xmlns="http://www.w3.org/2000/svg" width="24" height="24" viewBox="0 0 24 24" fill="none"><path d="M0.3 3.9L2.6 3.9L2.6 11.6L0.3 11.6L0.3 3.9ZM1.4 0C2.2 0 2.8 0.6 2.8 1.4C2.8 2.2 2.2 2.8 1.4 2.8C0.6 2.8 0 2.2 0 1.4C0 0.6 0.6 0 1.4 0ZM3.9 3.9L6.2 3.9L6.2 5C6.7 4.3 7.5 3.8 8.4 3.8L9 3.8C10.4 3.8 11.6 5 11.6 6.4L11.6 11.6L9.3 11.6L9.3 10.9L9.3 7.4C9.3 6.5 8.7 5.8 7.8 5.8C6.9 5.8 6.2 6.5 6.2 7.4L6.2 11.6L3.9 11.6L3.9 3.9Z" fill="rgba(255, 255, 255, 1)" fill-rule="nonzero" transform="matrix(1 0 0 1 6 6)"/></svg>