<svg xmlns="http://www.w3.org/2000/svg" width="24" height="24" viewBox="0 0 24 24" fill="none"><path d="M12 24C5.4 24 0 18.6 0 12C0 5.4 5.4 0 12 0C18.6 0 24 5.4 24 12C24 18.6 18.6 24 12 24ZM12 0.9C5.9 0.9 0.9 5.9 0.9 12C0.9 18.1 5.9 23.1 12 23.1C18.1 23.1 23.1 18.1 23.1 12C23.1 5.9 18.1 0.9 12 0.9Z" fill="rgba(255, 255, 255, 1)" fill-rule="nonzero" transform="matrix(1 0 0 1 0 0)"/><path d="M12 24L0 12L12 0L24 12L12 24Z" fill="rgba(255, 255, 255, 1)" fill-rule="nonzero" transform="matrix(1 0 0 1 0 0)"/><path d="M13.1 2.1C12.9 0.6 12.1 0.3 10.6 0.2C9.3 0.1 7.8 0 6.6 0C5.4 0 3.9 0 2.6 0.2C1.1 0.3 0.3 0.6 0.1 2.1C0.1 2.8 0 3.8 0 4.7C0 5.6 0 6.7 0.1 7.3C0.3 8.8 1.1 9.1 2.6 9.2C3.9 9.3 5.4 9.4 6.6 9.4C7.8 9.4 9.3 9.4 10.6 9.2C12.1 9.1 12.9 8.8 13.1 7.3C13.2 6.6 13.3 5.6 13.3 4.7C13.3 3.8 13.3 2.8 13.1 2.1ZM5.3 6.8L5.3 2.8L8.8 4.8L5.3 6.8Z" fill="rgba(255, 255, 255, 1)" fill-rule="nonzero" transform="matrix(1 0 0 1 5.4 7.2)"/><path d="M13.1 2.1L10.6 0.2L6.6 0L2.6 0.2L0.1 2.1L0 4.7L0.1 7.3L2.6 9.2L6.6 9.4L10.6 9.2L13.1 7.3L13.3 4.7L13.1 2.1Z" fill="rgba(255, 255, 255, 1)" fill-rule="nonzero" transform="matrix(1 0 0 1 5.4 7.2)"/></svg>