<svg xmlns="http://www.w3.org/2000/svg" width="24" height="24" viewBox="0 0 24 24" fill="none"><path d="M12 24C5.4 24 0 18.6 0 12C0 5.4 5.4 0 12 0C18.6 0 24 5.4 24 12C24 18.6 18.6 24 12 24ZM12 0.9C5.9 0.9 0.9 5.9 0.9 12C0.9 18.1 5.9 23.1 12 23.1C18.1 23.1 23.1 18.1 23.1 12C23.1 5.9 18.1 0.9 12 0.9Z" fill="rgba(255, 255, 255, 1)" fill-rule="nonzero" transform="matrix(1 0 0 1 0 0)"/><path d="M12 24L0 12L12 0L24 12L12 24Z" fill="rgba(255, 255, 255, 1)" fill-rule="nonzero" transform="matrix(1 0 0 1 0 0)"/><path d="M2.3 14.22L5.1 14.22L5.1 7.82L7.1 7.82L7.5 5.22L5 5.22L5 3.22C5 2.52 5.7 2.12 6.4 2.12L7.6 2.12L7.6 0.02L5.5 0.02C3.5 -0.18 2.3 1.42 2.3 3.32L2.3 5.22L0 5.22L0 7.82L2.3 7.82L2.3 14.22Z" fill="rgba(255, 255, 255, 1)" fill-rule="nonzero" transform="matrix(1 0 0 1 7.4 5.283)"/><path d="M2.3 14.217L5.1 14.217L5.1 7.817L7.1 7.817L7.5 5.217L5 5.217L5 3.217L6.4 2.117L7.6 2.117L7.6 0.017L5.5 0.017L2.3 3.317L2.3 5.217L0 5.217L0 7.817L2.3 7.817L2.3 14.217Z" fill="rgba(255, 255, 255, 1)" fill-rule="nonzero" transform="matrix(1 0 0 1 7.4 5.283)"/></svg>