<svg xmlns="http://www.w3.org/2000/svg" width="24" height="24" viewBox="0 0 24 24" fill="none"><path d="M12 24C5.4 24 0 18.6 0 12C0 5.4 5.4 0 12 0C18.6 0 24 5.4 24 12C24 18.6 18.6 24 12 24ZM12 0.9C5.9 0.9 0.9 5.9 0.9 12C0.9 18.1 5.9 23.1 12 23.1C18.1 23.1 23.1 18.1 23.1 12C23.1 5.9 18.1 0.9 12 0.9Z" fill="rgba(255, 255, 255, 1)" fill-rule="nonzero" transform="matrix(1 0 0 1 0 0)"/><path d="M12 24L0 12L12 0L24 12L12 24Z" fill="rgba(255, 255, 255, 1)" fill-rule="nonzero" transform="matrix(1 0 0 1 0 0)"/><path d="M9.6 2.7C8.9 2.3 8.3 1.4 8.2 0.6L8.2 0L6 0L6 8.8C6 9.8 5.2 10.7 4.1 10.7C3 10.7 2.2 9.9 2.2 8.8C2.2 7.7 3 6.9 4.1 6.9C5.2 6.9 4.5 6.9 4.7 6.9L4.7 4.7L4.1 4.7C1.8 4.7 0 6.5 0 8.8C0 11.1 1.5 12.8 4.1 12.8C6.7 12.8 8.2 11 8.2 8.7L8.2 4.1C9 4.9 10.2 5.2 11.3 5.1L11.3 2.9C10.7 3 10.1 3.1 9.6 2.7Z" fill="rgba(255, 255, 255, 1)" fill-rule="nonzero" transform="matrix(1 0 0 1 6.5 5.5)"/><path d="M9.6 2.7L8.2 0.6L8.2 0L6 0L6 8.8L4.1 10.7L2.2 8.8L4.1 6.9L4.7 6.9L4.7 4.7L4.1 4.7L0 8.8L4.1 12.8L8.2 8.7L8.2 4.1L11.3 5.1L11.3 2.9L9.6 2.7Z" fill="rgba(255, 255, 255, 1)" fill-rule="nonzero" transform="matrix(1 0 0 1 6.5 5.5)"/></svg>