<svg xmlns="http://www.w3.org/2000/svg" width="24" height="24" viewBox="0 0 24 24" fill="none"><path d="M12 24C5.4 24 0 18.6 0 12C0 5.4 5.4 0 12 0C18.6 0 24 5.4 24 12C24 18.6 18.6 24 12 24ZM12 0.9C5.9 0.9 0.9 5.9 0.9 12C0.9 18.1 5.9 23.1 12 23.1C18.1 23.1 23.1 18.1 23.1 12C23.1 5.9 18.1 0.9 12 0.9Z" fill="rgba(255, 255, 255, 1)" fill-rule="nonzero" transform="matrix(1 0 0 1 0 0)"/><path d="M12 24L0 12L12 0L24 12L12 24Z" fill="rgba(255, 255, 255, 1)" fill-rule="nonzero" transform="matrix(1 0 0 1 0 0)"/><path d="M0.3 3.9L2.6 3.9L2.6 11.6L0.3 11.6L0.3 3.9ZM1.4 0C2.2 0 2.8 0.6 2.8 1.4C2.8 2.2 2.2 2.8 1.4 2.8C0.6 2.8 0 2.2 0 1.4C0 0.6 0.6 0 1.4 0ZM3.9 3.9L6.2 3.9L6.2 5C6.7 4.3 7.5 3.8 8.4 3.8L9 3.8C10.4 3.8 11.6 5 11.6 6.4L11.6 11.6L9.3 11.6L9.3 10.9L9.3 7.4C9.3 6.5 8.7 5.8 7.8 5.8C6.9 5.8 6.2 6.5 6.2 7.4L6.2 11.6L3.9 11.6L3.9 3.9Z" fill="rgba(255, 255, 255, 1)" fill-rule="nonzero" transform="matrix(1 0 0 1 6 6)"/><path d="M0.3 3.9L2.6 3.9L2.6 11.6L0.3 11.6L0.3 3.9Z" fill="rgba(255, 255, 255, 1)" fill-rule="nonzero" transform="matrix(1 0 0 1 6 6)"/></svg>