<svg xmlns="http://www.w3.org/2000/svg" width="24" height="24" viewBox="0 0 24 24" fill="none"><path d="M12 24C5.4 24 0 18.6 0 12C0 5.4 5.4 0 12 0C18.6 0 24 5.4 24 12C24 18.6 18.6 24 12 24ZM12 0.9C5.9 0.9 0.9 5.9 0.9 12C0.9 18.1 5.9 23.1 12 23.1C18.1 23.1 23.1 18.1 23.1 12C23.1 5.9 18.1 0.9 12 0.9Z" fill="rgba(255, 255, 255, 1)" fill-rule="nonzero" transform="matrix(1 0 0 1 0 0)"/><path d="M12 24L0 12L12 0L24 12L12 24Z" fill="rgba(255, 255, 255, 1)" fill-rule="nonzero" transform="matrix(1 0 0 1 0 0)"/><path d="M3.6 0L9.8 0C11.8 0 13.4 1.6 13.4 3.6L13.4 9.8C13.4 11.8 11.8 13.4 9.8 13.4L3.6 13.4C1.6 13.4 0 11.8 0 9.8L0 3.6C0 1.6 1.6 0 3.6 0ZM10.3 2.4C10.7 2.4 11.1 2.8 11.1 3.2C11.1 3.6 10.7 4 10.3 4C9.9 4 9.5 3.6 9.5 3.2C9.5 2.8 9.8 2.4 10.3 2.4ZM6.7 3.1C8.7 3.1 10.4 4.8 10.4 6.8C10.4 8.8 8.7 10.5 6.7 10.5C4.7 10.5 3.1 8.9 3.1 6.8C3.1 4.8 4.7 3.1 6.7 3.1ZM6.7 4.3C8 4.3 9.1 5.4 9.1 6.7C9.1 8 8 9.1 6.7 9.1C5.4 9.1 4.3 8 4.3 6.7C4.3 5.4 5.4 4.3 6.7 4.3ZM3.6 1.2L9.7 1.2C11.1 1.2 12.2 2.3 12.2 3.7L12.2 9.8C12.2 11.2 11.1 12.3 9.7 12.3L3.6 12.3C2.2 12.3 1.1 11.2 1.1 9.8L1.1 3.7C1.1 2.3 2.2 1.2 3.6 1.2Z" fill="rgba(255, 255, 255, 1)" fill-rule="nonzero" transform="matrix(1 0 0 1 5.3 5.3)"/><path d="M3.6 0L9.8 0L13.4 3.6L13.4 9.8L9.8 13.4L3.6 13.4L0 9.8L0 3.6L3.6 0Z" fill="rgba(255, 255, 255, 1)" fill-rule="nonzero" transform="matrix(1 0 0 1 5.3 5.3)"/></svg>